cl1 = 1;
Point(1) = {0, 0, 0, cl1};
Point(2) = {1, 0, 0, cl1};
Point(3) = {1, 1, 0, cl1};
Point(4) = {0, 1, 0, cl1};
Point(5) = {1, 1, 1, cl1};
Point(6) = {1, 0, 1, cl1};
Point(10) = {0, 0, 1, cl1};
Point(14) = {0, 1, 1, cl1};
Line(1) = {2, 1};
Transfinite Line {1} = 2Using Progression 1;
Line(2) = {1, 4};
Transfinite Line {2} = 2Using Progression 1;
Line(3) = {4, 3};
Transfinite Line {3} = 2Using Progression 1;
Line(4) = {3, 2};
Transfinite Line {4} = 2Using Progression 1;
Line(8) = {5, 6};
Transfinite Line {8} = 2Using Progression 1;
Line(9) = {6, 10};
Transfinite Line {9} = 2Using Progression 1;
Line(10) = {10, 14};
Transfinite Line {10} = 2Using Progression 1;
Line(11) = {14, 5};
Transfinite Line {11} = 2Using Progression 1;
Line(13) = {3, 5};
Transfinite Line {13} = 2Using Progression 1;
Line(14) = {2, 6};
Transfinite Line {14} = 2Using Progression 1;
Line(18) = {1, 10};
Transfinite Line {18} = 2Using Progression 1;
Line(22) = {4, 14};
Transfinite Line {22} = 2Using Progression 1;
Line Loop(6) = {4, 1, 2, 3};
Plane Surface(6) = {6};
Transfinite Surface {6} = {1,2,3,4};
Line Loop(15) = {4, 14, -8, -13};
Ruled Surface(15) = {15};
Transfinite Surface {15} = {6,2,3,5};
Line Loop(19) = {1, 18, -9, -14};
Ruled Surface(19) = {19};
Transfinite Surface {19} = {6,2,1,10};
Line Loop(23) = {2, 22, -10, -18};
Ruled Surface(23) = {23};
Transfinite Surface {23} = {10,1,4,14};
Line Loop(27) = {3, 13, -11, -22};
Ruled Surface(27) = {27};
Transfinite Surface {27} = {14,5,3,4};
Line Loop(28) = {8, 9, 10, 11};
Plane Surface(28) = {28};
Transfinite Surface {28} = {10,6,5,14};
Surface Loop(1) = {6, 28, 15, 19, 23, 27};
Volume(1) = {1};
Transfinite Volume {1} = {10,6,2,1,14,5,3,4};
