// Gmsh project created on Fri Jan 21 01:35:10 2011
Point(1) = {0, 0, 0, 1.0};
Point(2) = {1, 0, 0, 1.0};
Point(3) = {0, 1, 0, 1.0};
Point(4) = {0, 0, 1, 1.0};
Point(5) = {0, 0, -1, 1.0};
Line(1) = {4, 2};
Line(2) = {2, 3};
Line(3) = {3, 1};
Line(4) = {1, 4};
Line(5) = {4, 3};
Line(6) = {1, 2};
Line(7) = {2, 5};
Line(8) = {5, 3};
Line(9) = {5, 1};
Line Loop(10) = {2, 3, 6};
Plane Surface(11) = {10};
Line Loop(12) = {4, 1, -6};
Plane Surface(13) = {12};
Line Loop(14) = {4, 5, 3};
Plane Surface(15) = {14};
Line Loop(16) = {1, 2, -5};
Plane Surface(17) = {16};
Line Loop(18) = {3, -9, 8};
Plane Surface(19) = {18};
Line Loop(20) = {6, 7, 9};
Plane Surface(21) = {20};
Line Loop(22) = {2, -8, -7};
Plane Surface(23) = {22};
Surface Loop(24) = {17, 13, 15, 11};
Volume(25) = {24};
Surface Loop(26) = {23, 19, 21, 11};
Volume(27) = {26};
